# xmcd
#
# Track frame offsets:
#	150
#	17156
#	32586
#	51093
#	68187
#	82632
#	99719
#	116595
#	133857
#	148934
#	165887
#	181466
#	199994
#	215342
#	232559
#
# Disc length: 3329 seconds
#
# Revision: 1
# Processed by: cddbd v1.5.1PL2 Copyright (c) Steve Scherf et al.
# Submitted via: audiograbber 1.83.01
#
DISCID=c60cff0f
DTITLE=Chartbuster - cb80006
DYEAR=1900
DGENRE=
TTITLE0=Mattea, Kathy - 455 Rocket
TTITLE1=Womack, Lee Ann - Never Again Again
TTITLE2=McCann, Lila - Down Came A Blackbird
TTITLE3=McBride, Martina - A Broken Wing
TTITLE4=Dixie Chicks - I Can Love You Better
TTITLE5=Twain, Shania - Honey I'm Home
TTITLE6=Kinleys - Please
TTITLE7=McCann, Lila - I Wanna Fall In Love
TTITLE8=Wynonna - When Love Starts Talking
TTITLE9=Twain, Shania - Love Gets Me Every Time
TTITLE10=McBride, Martina - Valentine
TTITLE11=Loveless, Patty - Trouble With The Truth
TTITLE12=Carter, Deana - Did I Shave My Legs For This
TTITLE13=McEntire, Reba - How Was I To Know
TTITLE14=Rimes, Leann - Light In Your Eyes
EXTD=
EXTT0=
EXTT1=
EXTT2=
EXTT3=
EXTT4=
EXTT5=
EXTT6=
EXTT7=
EXTT8=
EXTT9=
EXTT10=
EXTT11=
EXTT12=
EXTT13=
EXTT14=
PLAYORDER=
